<svg
  width="393.001"
  height="91.602"
  viewBox="0 0 393.001 91.602"
  xmlns="http://www.w3.org/2000/svg"><g
  id="svgGroup"
  stroke-linecap="round"
  fill-rule="evenodd"
  font-size="9pt"
  stroke="#000"
  stroke-width="1.5mm"
  fill="#00000000"
  style="stroke:#000;stroke-width:1.5mm;fill:#00000000">
    <path
    d="M 42.1 67.4 L 0 67.4 L 0 3 L 42.1 3 L 42.1 7.5 L 5.5 7.5 L 5.5 33 L 38.6 33 L 38.6 37.4 L 5.5 37.4 L 5.5 63 L 42.1 63 L 42.1 67.4 Z M 123.1 4.9 L 123.1 9.8 Q 119.3 8.4 114.75 7.6 Q 110.2 6.8 105.2 6.8 A 37.357 37.357 0 0 0 99.392 7.223 Q 96.324 7.707 93.832 8.743 A 17.796 17.796 0 0 0 90.5 10.55 A 19.785 19.785 0 0 0 83.319 19.76 A 24.782 24.782 0 0 0 82.85 21.05 A 41.195 41.195 0 0 0 81.235 27.916 Q 80.6 32.113 80.6 37 A 43.447 43.447 0 0 0 81.235 44.671 Q 82.008 48.971 83.719 52.388 A 21.871 21.871 0 0 0 86.5 56.65 Q 91.406 62.513 101.292 63.5 A 42.38 42.38 0 0 0 105.5 63.7 Q 109.9 63.7 114.6 63 A 54.137 54.137 0 0 0 119.471 62.055 A 42.033 42.033 0 0 0 123.1 61 L 123.1 65.9 Q 119.3 67.1 114.75 67.75 A 63.477 63.477 0 0 1 109.362 68.276 A 80.852 80.852 0 0 1 104.8 68.4 A 43.232 43.232 0 0 1 97.698 67.85 Q 92.157 66.926 88.05 64.45 Q 81.5 60.5 78.35 53.45 A 35.184 35.184 0 0 1 75.803 44.775 A 47.868 47.868 0 0 1 75.2 37 A 64.544 64.544 0 0 1 75.755 28.32 Q 76.469 23.066 78.1 18.65 Q 81 10.8 87.5 6.4 Q 94 2 104.7 2 A 70.206 70.206 0 0 1 110.276 2.212 A 53.858 53.858 0 0 1 114.75 2.75 A 49.087 49.087 0 0 1 120.129 3.937 A 40.421 40.421 0 0 1 123.1 4.9 Z M 277.9 50 L 277.9 20 L 283.4 20 L 283.4 50.2 A 21.665 21.665 0 0 0 283.728 54.1 Q 284.12 56.241 284.982 57.919 A 10.252 10.252 0 0 0 286.8 60.45 A 10.324 10.324 0 0 0 290.682 62.868 Q 293.508 63.9 297.5 63.9 A 22.284 22.284 0 0 0 303.696 63.06 A 19.862 19.862 0 0 0 306.65 61.95 Q 310.8 60 313.8 57 L 313.8 20 L 319.3 20 L 319.3 67.4 L 314.4 67.4 L 313.9 61.6 Q 310.4 64.7 305.9 66.55 Q 301.683 68.283 295.974 68.393 A 40.495 40.495 0 0 1 295.2 68.4 A 24.028 24.028 0 0 1 290.175 67.908 Q 285.291 66.863 282.3 63.6 A 15.686 15.686 0 0 1 278.867 57.371 Q 278.149 54.962 277.964 52.069 A 32.428 32.428 0 0 1 277.9 50 Z M 258.8 80 L 258.8 63.5 A 25.7 25.7 0 0 1 251.522 67.162 A 24.497 24.497 0 0 1 251.4 67.2 A 26.236 26.236 0 0 1 246.946 68.136 A 35.747 35.747 0 0 1 242.5 68.4 A 27.17 27.17 0 0 1 235.855 67.632 A 18.972 18.972 0 0 1 226.7 62.45 Q 222.399 58.038 221.287 49.803 A 46.478 46.478 0 0 1 220.9 43.6 Q 220.9 35.952 222.869 30.782 A 17.407 17.407 0 0 1 226.5 24.85 A 18.36 18.36 0 0 1 235.878 19.66 A 27.671 27.671 0 0 1 242.1 19 A 33.093 33.093 0 0 1 246.645 19.297 Q 249.394 19.678 251.7 20.55 A 21.43 21.43 0 0 1 258.332 24.596 A 25.05 25.05 0 0 1 259.2 25.4 L 259.7 20 L 264.3 20 L 264.3 79.8 A 19.079 19.079 0 0 0 264.385 81.667 Q 264.568 83.529 265.151 84.676 A 4.237 4.237 0 0 0 265.5 85.25 A 3.238 3.238 0 0 0 266.766 86.255 Q 268.125 86.9 270.5 86.9 A 7.83 7.83 0 0 0 271.247 86.862 Q 271.759 86.813 272.35 86.7 Q 273.4 86.5 274.2 86.3 L 274.2 90.9 Q 272 91.6 269.1 91.6 Q 259.112 91.6 258.809 80.692 A 24.966 24.966 0 0 1 258.8 80 Z M 360.6 66.4 L 360.6 61.5 Q 363.9 62.6 367.4 63.15 Q 370.9 63.7 374.5 63.7 Q 381.5 63.7 384.5 61.85 A 5.969 5.969 0 0 0 387.146 58.238 Q 387.5 56.981 387.5 55.4 A 11.287 11.287 0 0 0 387.362 53.573 Q 387.203 52.603 386.859 51.83 A 4.997 4.997 0 0 0 386.05 50.55 A 7.829 7.829 0 0 0 384.665 49.33 Q 383.389 48.431 381.5 47.7 Q 378.554 46.56 374.074 45.058 A 315.429 315.429 0 0 0 373.6 44.9 Q 369.6 43.5 366.35 42.15 Q 363.1 40.8 361.2 38.35 Q 359.681 36.392 359.377 33.187 A 17.835 17.835 0 0 1 359.3 31.5 A 14.913 14.913 0 0 1 359.741 27.76 A 10.027 10.027 0 0 1 363.4 22.15 A 12.292 12.292 0 0 1 366.821 20.357 Q 370.122 19.191 375.045 19.027 A 49.735 49.735 0 0 1 376.7 19 A 51.755 51.755 0 0 1 381.877 19.25 A 45.09 45.09 0 0 1 383.55 19.45 A 41.164 41.164 0 0 1 386.432 19.949 Q 387.972 20.275 389.3 20.7 L 389.3 25.6 Q 383.5 23.8 377.5 23.8 Q 371.983 23.8 369.033 24.856 A 7.958 7.958 0 0 0 367.55 25.55 A 5.724 5.724 0 0 0 364.901 29.388 A 9.457 9.457 0 0 0 364.7 31.4 Q 364.7 34.2 365.95 35.75 A 6.725 6.725 0 0 0 367.21 36.932 Q 367.831 37.39 368.62 37.797 A 15.288 15.288 0 0 0 369.95 38.4 A 68.891 68.891 0 0 0 372.036 39.192 Q 373.124 39.586 374.39 40.014 A 165.511 165.511 0 0 0 377.1 40.9 Q 382.4 42.6 385.95 44.3 A 16.638 16.638 0 0 1 388.515 45.806 Q 389.94 46.835 390.907 48.081 A 9.891 9.891 0 0 1 391.25 48.55 Q 392.707 50.674 392.951 54.011 A 19.083 19.083 0 0 1 393 55.4 A 16.134 16.134 0 0 1 392.581 59.204 A 9.725 9.725 0 0 1 388.25 65.4 Q 384.623 67.691 378.927 68.232 A 39.422 39.422 0 0 1 375.2 68.4 A 58.144 58.144 0 0 1 368.606 68.037 A 51.942 51.942 0 0 1 367.15 67.85 A 49.871 49.871 0 0 1 364.212 67.345 Q 362.203 66.934 360.6 66.4 Z M 54.1 58.3 L 54.1 0 L 59.6 0 L 59.6 58.1 Q 59.6 61.3 60.6 62.5 A 3.079 3.079 0 0 0 62.001 63.436 Q 62.517 63.613 63.152 63.672 A 7.115 7.115 0 0 0 63.8 63.7 Q 66 63.7 68.2 63.1 L 68.2 67.7 Q 66.9 68.1 65.5 68.25 Q 64.1 68.4 62.9 68.4 A 11.804 11.804 0 0 1 60.178 68.103 A 8.095 8.095 0 0 1 56.5 66.2 Q 54.1 64 54.1 58.3 Z M 170.9 62.1 A 15.419 15.419 0 0 0 175.946 66.004 Q 180.799 68.4 188.2 68.4 A 39.113 39.113 0 0 0 192.466 68.179 Q 201.203 67.219 205.55 62.1 Q 209.239 57.756 210.384 50.656 A 43.766 43.766 0 0 0 210.9 43.7 A 46.284 46.284 0 0 0 210.683 39.111 Q 210.32 35.477 209.353 32.474 A 20.591 20.591 0 0 0 205.5 25.35 Q 200.1 19 188.2 19 A 38.392 38.392 0 0 0 184.506 19.17 Q 181.143 19.496 178.407 20.442 A 16.608 16.608 0 0 0 171 25.35 Q 167.288 29.716 166.127 36.752 A 42.788 42.788 0 0 0 165.6 43.7 Q 165.6 50.364 167.208 55.269 A 20.296 20.296 0 0 0 170.9 62.1 Z M 141.6 67.4 L 136.1 67.4 L 136.1 20 L 140.9 20 L 141.5 26.6 A 42.11 42.11 0 0 1 146.808 23.446 A 51.435 51.435 0 0 1 149.95 22 A 55.153 55.153 0 0 1 156.954 19.572 A 48.311 48.311 0 0 1 159.3 19 L 159.3 23.5 Q 156.4 24.2 153.05 25.4 Q 149.7 26.6 146.65 28.05 A 38.755 38.755 0 0 0 144.345 29.236 Q 142.788 30.109 141.6 31 L 141.6 67.4 Z M 258.8 58.6 L 258.8 30 Q 252.8 23.6 243.4 23.6 A 26.889 26.889 0 0 0 238.64 23.992 Q 233.089 24.992 230.25 28.55 A 15.514 15.514 0 0 0 227.767 33.203 Q 226.999 35.424 226.633 38.168 A 41.224 41.224 0 0 0 226.3 43.6 A 40.48 40.48 0 0 0 226.648 49.108 Q 227.538 55.564 230.7 59.05 Q 235.1 63.9 243.9 63.9 Q 248.158 63.9 251.364 62.849 A 16.32 16.32 0 0 0 252.45 62.45 Q 256 61 258.8 58.6 Z M 188.2 63.7 A 29.019 29.019 0 0 0 192.848 63.354 Q 195.327 62.951 197.262 62.077 A 11.189 11.189 0 0 0 201.55 58.8 Q 205.4 53.9 205.4 43.7 A 41.952 41.952 0 0 0 205.092 38.43 Q 204.303 32.222 201.5 28.7 Q 198.425 24.836 191.93 24.019 A 29.931 29.931 0 0 0 188.2 23.8 A 28.341 28.341 0 0 0 183.471 24.166 Q 180.961 24.592 179.006 25.513 A 11.313 11.313 0 0 0 174.9 28.7 A 15.33 15.33 0 0 0 172.451 33.315 Q 171.011 37.508 171 43.607 A 52.056 52.056 0 0 0 171 43.7 A 42.688 42.688 0 0 0 171.308 49.018 Q 172.097 55.278 174.9 58.8 Q 177.975 62.664 184.47 63.481 A 29.931 29.931 0 0 0 188.2 63.7 Z M 346.2 67.4 L 340.7 67.4 L 340.7 24.6 L 333.3 24.6 L 333.9 20 L 346.2 20 L 346.2 67.4 Z M 346.3 7.7 L 340 7.7 L 340 1.7 L 346.3 1.7 L 346.3 7.7 Z"
    vector-effect="non-scaling-stroke"/>
  </g>
</svg>